<?xml version="1.0" encoding="utf-8"?>
<!-- Generator: Adobe Illustrator 16.0.0, SVG Export Plug-In . SVG Version: 6.00 Build 0)  -->
<!DOCTYPE svg PUBLIC "-//W3C//DTD SVG 1.1//EN" "http://www.w3.org/Graphics/SVG/1.1/DTD/svg11.dtd">
<svg version="1.1" id="Layer_1" xmlns="http://www.w3.org/2000/svg" xmlns:xlink="http://www.w3.org/1999/xlink" x="0px" y="0px"
	 width="263px" height="77px" viewBox="0 0 263 77" enable-background="new 0 0 263 77" xml:space="preserve">
<g>
	<defs>
		<rect id="SVGID_1_" x="0.5" y="0.5" width="262" height="76" />
	</defs>
	<clipPath id="SVGID_2_">
		<use xlink:href="#SVGID_1_"  overflow="visible" />
	</clipPath>
	<g clip-path="url(#SVGID_2_)">
		<g>
			<defs>
				<rect id="SVGID_3_" x="0.5" y="0.5" width="262.05" height="76" />
			</defs>
			<clipPath id="SVGID_4_">
				<use xlink:href="#SVGID_3_"  overflow="visible" />
			</clipPath>
			<g clip-path="url(#SVGID_4_)">

					<radialGradient id="SVGID_5_" cx="-169.6436" cy="424.9512" r="1" gradientTransform="matrix(38.002 0 0 -38.002 6485.2539 16187.5254)" gradientUnits="userSpaceOnUse">
					<stop  offset="0" style="stop-color:#FFFFFF" />
					<stop  offset="1" style="stop-color:#CDE2F6" />
				</radialGradient>
				<path fill="url(#SVGID_5_)" d="M61.711,0.5H15.289C7.121,0.5,0.5,7.121,0.5,15.289v46.422C0.5,69.879,7.121,76.5,15.289,76.5
					h46.422c8.168,0,14.789-6.621,14.789-14.789V15.289C76.5,7.121,69.879,0.5,61.711,0.5z" />

					<linearGradient id="SVGID_6_" gradientUnits="userSpaceOnUse" x1="46.3359" y1="-5.6641" x2="52.2798" y2="25.1185" gradientTransform="matrix(1 0 0 -1 8.3999 53.1602)">
					<stop  offset="0" style="stop-color:#81B4E2" />
					<stop  offset="0.17" style="stop-color:#7AADDC" />
					<stop  offset="0.42" style="stop-color:#679BCE" />
					<stop  offset="0.72" style="stop-color:#487DB7" />
					<stop  offset="1" style="stop-color:#245A9C" />
				</linearGradient>
				<path fill="url(#SVGID_6_)" d="M54.074,42.041c0,2.148,1.744,3.893,3.893,3.893c2.149,0,3.893-1.744,3.893-3.893
					c0-2.527-3.755-6.314-3.893-6.314C57.865,35.727,54.074,39.49,54.074,42.041z" />
				<path fill="#223F7B" d="M66.832,19.245H51.429c-5.586,0-10.113,4.527-10.113,10.113v28.385c5.586,0,10.113-4.526,10.113-10.112
					V29.358H61.51L66.832,19.245z" />
				<path fill="#223F7B" d="M34.258,37.14v-0.008c-0.559-0.705-1.188-1.35-1.881-1.925l-9.514,16.336V39.088L12.14,48.744
					c1.59,5.208,6.432,8.995,12.159,8.995c7.022,0,12.715-5.692,12.715-12.715c0-2.983-1.036-5.72-2.756-7.889V37.14z" />

					<linearGradient id="SVGID_7_" gradientUnits="userSpaceOnUse" x1="15.6235" y1="-1.3828" x2="15.6235" y2="28.3337" gradientTransform="matrix(1 0 0 -1 8.3999 53.1602)">
					<stop  offset="0" style="stop-color:#81B4E2" />
					<stop  offset="0.17" style="stop-color:#7AADDC" />
					<stop  offset="0.42" style="stop-color:#679BCE" />
					<stop  offset="0.72" style="stop-color:#487DB7" />
					<stop  offset="1" style="stop-color:#245A9C" />
				</linearGradient>
				<path fill="url(#SVGID_7_)" d="M36.451,28.208c-1.598-5.192-6.436-8.963-12.152-8.963c-7.022,0-12.714,5.692-12.714,12.715
					c0,2.346,0.642,4.542,1.751,6.428c0.016,0.028,0.036,0.055,0.051,0.079c0.162,0.272,0.334,0.54,0.52,0.799
					c0.04,0.055,0.079,0.11,0.122,0.166c0.177,0.239,0.358,0.476,0.551,0.704c0.059,0.071,0.122,0.138,0.181,0.208
					c0.063,0.071,0.122,0.143,0.185,0.213h0.012c0.394,0.43,0.807,0.838,1.259,1.213l9.53-16.34v13.155l10.715-10.372L36.451,28.208
					z" />
				<path fill="#FFFFFF" d="M106.909,17.753c1.586,1.103,2.582,2.63,2.987,4.578l-5.203,1.059c-0.193-0.964-0.642-1.708-1.351-2.232
					c-0.708-0.523-1.511-0.787-2.409-0.787c-0.897,0-1.551,0.208-2.086,0.626c-0.536,0.417-0.803,0.937-0.803,1.559
					c0,0.941,0.579,1.543,1.736,1.799l4.464,0.996c3.94,0.878,5.912,2.968,5.912,6.267c0,2.205-0.846,3.921-2.539,5.141
					c-1.692,1.22-3.802,1.831-6.329,1.831c-2.528,0-4.634-0.575-6.377-1.721c-1.748-1.146-2.759-2.748-3.035-4.802l5.464-1.059
					c0.516,2.122,1.929,3.181,4.24,3.181c0.984,0,1.763-0.205,2.33-0.61c0.567-0.406,0.85-0.941,0.85-1.606
					c0-0.516-0.145-0.921-0.433-1.221c-0.287-0.299-0.807-0.523-1.558-0.673l-4.5-0.964c-3.854-0.878-5.782-2.957-5.782-6.231
					c0-2.079,0.783-3.728,2.346-4.948c1.563-1.221,3.621-1.831,6.168-1.831c2.358,0,4.326,0.551,5.913,1.653L106.909,17.753z" />
				<path fill="#FFFFFF" d="M138.463,23.312c1.178,1.208,1.768,2.779,1.768,4.708v10.089h-5.109v-8.995
					c0-0.901-0.256-1.622-0.771-2.169c-0.516-0.547-1.158-0.819-1.93-0.819c-0.964,0-1.728,0.346-2.298,1.043
					c-0.567,0.697-0.851,1.708-0.851,3.035v7.904h-5.141v-8.995c0-0.901-0.255-1.622-0.771-2.169
					c-0.516-0.547-1.169-0.819-1.96-0.819c-0.965,0-1.721,0.346-2.264,1.043c-0.547,0.697-0.819,1.708-0.819,3.035v7.904h-5.141
					V21.977h5.141v1.476c1.177-1.307,2.764-1.96,4.756-1.96c2.377,0,4.133,0.91,5.266,2.732c1.394-1.818,3.299-2.732,5.721-2.732
					c1.756,0,3.224,0.606,4.4,1.815L138.463,23.312z" />
				<path fill="#FFFFFF" d="M160.695,38.104h-5.141v-1.283c-1.307,1.177-2.976,1.767-5.011,1.767c-2.185,0-4.043-0.799-5.573-2.393
					c-1.533-1.594-2.3-3.645-2.3-6.153c0-2.507,0.767-4.531,2.3-6.137c1.53-1.606,3.389-2.409,5.573-2.409
					c2.035,0,3.704,0.591,5.011,1.768v-1.283h5.141v16.127V38.104z M154.382,33.046c0.783-0.783,1.173-1.783,1.173-3.003
					s-0.39-2.196-1.173-2.988c-0.784-0.791-1.709-1.188-2.778-1.188c-1.135,0-2.067,0.39-2.795,1.173
					c-0.729,0.783-1.096,1.783-1.096,3.003s0.363,2.248,1.096,3.019c0.728,0.772,1.66,1.158,2.795,1.158
					C152.673,34.219,153.598,33.83,154.382,33.046z" />
				<path fill="#FFFFFF" d="M176.279,21.882l-0.225,5.141h-0.933c-3.704,0-5.558,2.012-5.558,6.038v5.043h-5.142V21.977h5.142v3.086
					c1.326-2.204,3.181-3.311,5.558-3.311C175.553,21.752,175.938,21.796,176.279,21.882z" />
				<path fill="#FFFFFF" d="M190.738,37.4c-1.477,0.791-2.944,1.189-4.401,1.189c-2.034,0-3.612-0.547-4.739-1.638
					c-1.125-1.091-1.688-2.688-1.688-4.787v-6.105h-2.925v-4.082h2.925v-4.755h5.141v4.755h4.755v4.082h-4.755v5.589
					c0,1.563,0.716,2.346,2.153,2.346c0.814,0,1.595-0.212,2.346-0.642L190.738,37.4z" />
				<path fill="#FFFFFF" d="M205.456,25.768h10.089v4.625h-10.089v7.711h-5.302V16.58h16.643v4.657h-11.341V25.768z" />
				<path fill="#FFFFFF" d="M235.208,38.104h-5.142v-1.543c-1.283,1.35-2.933,2.023-4.947,2.023c-1.887,0-3.401-0.614-4.547-1.846
					c-1.145-1.232-1.721-2.854-1.721-4.869v-9.896h5.109v8.802c0,0.941,0.256,1.708,0.771,2.299c0.517,0.59,1.178,0.882,1.992,0.882
					c1.051,0,1.871-0.37,2.457-1.11c0.586-0.74,0.881-1.87,0.881-3.389v-7.487h5.142v16.127L235.208,38.104z" />
				<path fill="#FFFFFF" d="M254.744,31.357h-11.825c0.213,0.964,0.634,1.724,1.252,2.279c0.622,0.559,1.362,0.834,2.216,0.834
					c1.606,0,2.752-0.622,3.436-1.862l4.564,0.933c-0.686,1.669-1.721,2.929-3.103,3.775c-1.382,0.847-3.015,1.268-4.901,1.268
					c-2.378,0-4.393-0.799-6.037-2.393c-1.646-1.594-2.477-3.645-2.477-6.153c0-2.507,0.826-4.531,2.477-6.137
					c1.648-1.606,3.672-2.409,6.072-2.409c2.402,0,4.295,0.784,5.881,2.346c1.588,1.563,2.398,3.629,2.441,6.2v1.319H254.744z
					 M244.336,26.346c-0.641,0.449-1.082,1.071-1.318,1.862h6.652c-0.236-0.834-0.643-1.468-1.22-1.897
					c-0.579-0.429-1.253-0.642-2.024-0.642s-1.443,0.224-2.086,0.673L244.336,26.346z" />
				<path fill="#FFFFFF" d="M257.413,38.104v-23.13h5.142v23.134h-5.142V38.104z" />
				<path fill="#ABD046" d="M101.071,44.458c1.771,0,3.181,0.479,4.236,1.437c1.054,0.957,1.582,2.217,1.582,3.779
					s-0.528,2.85-1.582,3.814c-1.055,0.964-2.465,1.448-4.236,1.448h-4.708v5.696h-2.582V44.458H101.071z M101.071,52.57
					c0.996,0,1.787-0.26,2.366-0.783c0.578-0.523,0.87-1.229,0.87-2.113c0-0.887-0.292-1.543-0.87-2.074
					c-0.579-0.532-1.37-0.796-2.366-0.796h-4.708v5.771h4.708V52.57z" />
				<path fill="#ABD046" d="M121.375,60.633h-2.512v-1.378c-1.094,1.142-2.542,1.712-4.345,1.712c-1.626,0-3.023-0.59-4.189-1.775
					c-1.165-1.185-1.751-2.7-1.751-4.551c0-1.85,0.586-3.346,1.763-4.538c1.177-1.192,2.567-1.787,4.177-1.787
					c1.803,0,3.251,0.571,4.345,1.712V48.65h2.512v11.975V60.633z M117.683,57.602c0.787-0.764,1.18-1.752,1.18-2.957
					c0-1.204-0.393-2.191-1.18-2.955c-0.788-0.764-1.705-1.146-2.752-1.146c-1.126,0-2.059,0.375-2.799,1.122
					c-0.74,0.748-1.11,1.744-1.11,2.979c0,1.236,0.37,2.232,1.11,2.98c0.74,0.748,1.673,1.122,2.799,1.122
					C115.978,58.747,116.895,58.365,117.683,57.602z" />
				<path fill="#ABD046" d="M126.685,56.889c0.083,0.678,0.39,1.182,0.929,1.52c0.539,0.339,1.228,0.508,2.063,0.508
					c0.724,0,1.299-0.146,1.724-0.434c0.425-0.291,0.638-0.676,0.638-1.156c0-0.709-0.54-1.182-1.618-1.426l-2.606-0.531
					c-2.173-0.484-3.259-1.57-3.259-3.259c0-1.126,0.429-2.04,1.291-2.739c0.862-0.701,2.007-1.052,3.44-1.052
					c1.35,0,2.476,0.319,3.37,0.952c0.893,0.635,1.452,1.469,1.677,2.5l-2.39,0.508c-0.098-0.594-0.386-1.07-0.87-1.425
					c-0.484-0.354-1.102-0.531-1.858-0.531c-0.693,0-1.22,0.149-1.582,0.444c-0.362,0.295-0.543,0.674-0.543,1.122
					c0,0.677,0.484,1.126,1.448,1.351l2.85,0.625c0.98,0.209,1.748,0.591,2.294,1.146c0.547,0.555,0.823,1.252,0.823,2.086
					c0,1.225-0.461,2.173-1.378,2.85c-0.917,0.678-2.141,1.016-3.669,1.016c-1.417,0-2.613-0.303-3.598-0.905
					c-0.98-0.603-1.543-1.483-1.688-2.646l2.511-0.531V56.889z" />
				<path fill="#ABD046" d="M138.589,56.889c0.082,0.678,0.39,1.182,0.929,1.52c0.539,0.339,1.229,0.508,2.063,0.508
					c0.725,0,1.299-0.146,1.725-0.434c0.426-0.291,0.637-0.676,0.637-1.156c0-0.709-0.539-1.182-1.617-1.426l-2.605-0.531
					c-2.173-0.484-3.26-1.57-3.26-3.259c0-1.126,0.43-2.04,1.291-2.739c0.861-0.701,2.008-1.052,3.441-1.052
					c1.35,0,2.476,0.319,3.369,0.952c0.894,0.635,1.453,1.469,1.676,2.5l-2.389,0.508c-0.099-0.594-0.386-1.07-0.869-1.425
					c-0.484-0.354-1.103-0.531-1.858-0.531c-0.692,0-1.22,0.149-1.583,0.444c-0.362,0.295-0.543,0.674-0.543,1.122
					c0,0.677,0.484,1.126,1.449,1.351l2.85,0.625c0.98,0.209,1.748,0.591,2.295,1.146c0.547,0.555,0.822,1.252,0.822,2.086
					c0,1.225-0.46,2.173-1.377,2.85c-0.917,0.678-2.143,1.016-3.67,1.016c-1.416,0-2.613-0.303-3.598-0.905
					c-0.979-0.603-1.543-1.483-1.688-2.646l2.512-0.531V56.889z" />
			</g>
		</g>
	</g>
</g>
</svg>